<svg xmlns="http://www.w3.org/2000/svg" xmlns:svg="http://www.w3.org/2000/svg" id="svg67" width="820" height="620" font-family="ui-sans-serif, system-ui, sans-serif" role="img" version="1.1" viewBox="0 0 820 620"><title id="title1">Python indexing vs slicing</title><desc id="desc1">Visual showing that indexing refers to positions of elements, slicing refers to gaps between elements, and step-slicing picks every Nth gap.</desc><defs id="defs1"><marker id="arrow" markerHeight="6" markerWidth="6" orient="auto-start-reverse" refX="8" refY="5" viewBox="0 0 10 10"><path id="path1" fill="none" stroke="context-stroke" stroke-linecap="round" stroke-linejoin="round" stroke-width="1.5" d="M2 1L8 5L2 9"/></marker><style id="style1">text{fill:#1a1a18;font-family:ui-sans-serif,system-ui,sans-serif}.th{font-size:14px;font-weight:500}.ts{font-size:12px;font-weight:400;fill:#5f5e5a}.cell{fill:#f1efe8;stroke:#b4b2a9}.cell-teal{fill:#e1f5ee;stroke:#0f6e56}.cell-hi{fill:#faeeda;stroke:#ba7517}</style></defs><text id="text1" x="40" y="36" class="th">Indexing - position of each element</text><rect id="rect1" width="100" height="44" x="100" y="50" stroke-width=".5" class="cell" rx="4"/><text id="text2" x="150" y="72" class="th" dominant-baseline="central" text-anchor="middle">212</text><rect id="rect2" width="100" height="44" x="210" y="50" stroke-width=".5" class="cell" rx="4"/><text id="text3" x="260" y="72" class="th" dominant-baseline="central" text-anchor="middle">540</text><rect id="rect3" width="100" height="44" x="320" y="50" stroke-width=".5" class="cell" rx="4"/><text id="text4" x="370" y="72" class="th" dominant-baseline="central" text-anchor="middle">376</text><rect id="rect4" width="100" height="44" x="430" y="50" stroke-width=".5" class="cell" rx="4"/><text id="text5" x="480" y="72" class="th" dominant-baseline="central" text-anchor="middle">101</text><circle id="circle5" cx="150" cy="113" r="9" fill="#e5971a" stroke="#ba7517" stroke-width=".5"/><text id="text6" x="150" y="114.073" fill="#633806" class="th" dominant-baseline="central" font-size="11" text-anchor="middle">0</text><circle id="circle6" cx="260" cy="113" r="9" fill="#e5971a" stroke="#ba7517" stroke-width=".5"/><text id="text7" x="260" y="114.073" fill="#633806" class="th" dominant-baseline="central" font-size="11" text-anchor="middle">1</text><circle id="circle7" cx="370" cy="113" r="9" fill="#e5971a" stroke="#ba7517" stroke-width=".5"/><text id="text8" x="370" y="114.073" fill="#633806" class="th" dominant-baseline="central" font-size="11" text-anchor="middle">2</text><circle id="circle8" cx="480" cy="113" r="9" fill="#e5971a" stroke="#ba7517" stroke-width=".5"/><text id="text9" x="480" y="114.073" fill="#633806" class="th" dominant-baseline="central" font-size="11" text-anchor="middle">3</text><line id="line9" x1="150" x2="150" y1="94" y2="104" stroke="#888780" stroke-width=".5"/><line id="line10" x1="260" x2="260" y1="94" y2="104" stroke="#888780" stroke-width=".5"/><line id="line11" x1="370" x2="370" y1="94" y2="104" stroke="#888780" stroke-width=".5"/><line id="line12" x1="480" x2="480" y1="94" y2="104" stroke="#888780" stroke-width=".5"/><line id="line13" x1="425.096" x2="605.158" y1="72" y2="72" stroke="#888780" stroke-dasharray="3 2" stroke-width=".8" marker-end="url(#arrow)" style="stroke:#e5971a;stroke-opacity:1"/><text id="text13" x="614" y="76" class="ts" dominant-baseline="auto">data[<tspan style="fill:#e5971a;fill-opacity:1" id="tspan1">2</tspan>] → 376</text><text id="text15" x="40" y="162" class="th">Slicing - gaps between elements</text><rect id="rect15" width="100" height="44" x="100" y="176" stroke-width=".5" class="cell" rx="4"/><text id="text16" x="150" y="198" class="th" dominant-baseline="central" text-anchor="middle">212</text><rect id="rect16" width="100" height="44" x="210" y="176" stroke-width=".5" class="cell" rx="4"/><text id="text17" x="260" y="198" class="th" dominant-baseline="central" text-anchor="middle">540</text><rect id="rect17" width="100" height="44" x="320" y="176" stroke-width=".5" class="cell" rx="4"/><text id="text18" x="370" y="198" class="th" dominant-baseline="central" text-anchor="middle">376</text><rect id="rect18" width="100" height="44" x="430" y="176" stroke-width=".5" class="cell" rx="4"/><text id="text19" x="480" y="198" class="th" dominant-baseline="central" text-anchor="middle">101</text><rect id="rect19" width="8" height="16" x="96" y="234" fill="#9fe1cb" stroke="#0f6e56" stroke-width=".5" rx="2"/><text id="text20" x="100" y="260" fill="#085041" class="th" dominant-baseline="central" font-size="11" text-anchor="middle">0</text><rect id="rect20" width="8" height="16" x="200.1" y="234" fill="#9fe1cb" stroke="#0f6e56" stroke-width=".5" rx="2"/><text id="text21" x="204.1" y="260" fill="#085041" class="th" dominant-baseline="central" font-size="11" text-anchor="middle">1</text><rect id="rect21" width="8" height="16" x="311.709" y="234" fill="#9fe1cb" stroke="#0f6e56" stroke-width=".5" rx="2"/><text id="text22" x="315.709" y="260" fill="#085041" class="th" dominant-baseline="central" font-size="11" text-anchor="middle">2</text><rect id="rect22" width="8" height="16" x="420.637" y="234" fill="#9fe1cb" stroke="#0f6e56" stroke-width=".5" rx="2"/><text id="text23" x="424.637" y="260" fill="#085041" class="th" dominant-baseline="central" font-size="11" text-anchor="middle">3</text><rect id="rect23" width="8" height="16" x="526" y="234" fill="#9fe1cb" stroke="#0f6e56" stroke-width=".5" rx="2"/><text id="text24" x="530" y="260" fill="#085041" class="th" dominant-baseline="central" font-size="11" text-anchor="middle">4</text><rect id="rect24" width="212.714" height="48" x="208.542" y="174" fill="none" stroke="#1d9e75" stroke-width="1.805" opacity=".75" rx="4.052"/><rect id="rect24-7" width="103.681" height="48" x="318.038" y="47.773" fill="none" stroke="#1d9e75" stroke-width="1.805" opacity=".75" rx="1.975" style="stroke:#e5971a;stroke-opacity:1"/><path id="path24" fill="none" stroke="#1d9e75" stroke-width="1" d="m 209.99967,226 v 6 h 209.53166 v -6" opacity=".5"/><line id="line24" x1="422" x2="605.348" y1="198" y2="198" stroke="#1d9e75" stroke-dasharray="3 2" stroke-width=".617" marker-end="url(#arrow)"/><text id="text25" x="614" y="198" fill="#0f6e56" class="ts" dominant-baseline="central">data[<tspan style="fill:#1d9e75;fill-opacity:1" id="tspan2">1:3</tspan>] → [540, 376]</text><line id="line25" x1="40" x2="780" y1="278" y2="278" stroke="#b4b2a9" stroke-width=".5"/><text id="text26" x="40" y="300" class="th">Step slicing - pick every Nth gap</text><text id="text27" x="40" y="318" class="ts">Example: Slice with step 3 → data[::3] → is taking every 3rd element of the list, or making 3 rows and keeping only the first</text><text id="text28" x="86" y="351" class="ts" dominant-baseline="central" text-anchor="end">data</text><rect id="rect28" width="60" height="38" x="90" y="332" stroke-width=".8" class="cell-hi" rx="4"/><text id="text29" x="120" y="351" fill="#633806" class="th" dominant-baseline="central" text-anchor="middle">212</text><rect id="rect29" width="60" height="38" x="155" y="332" stroke-width=".5" class="cell" rx="4"/><text id="text30" x="185" y="351" class="ts" dominant-baseline="central" text-anchor="middle">540</text><rect id="rect30" width="60" height="38" x="220" y="332" stroke-width=".5" class="cell" rx="4"/><text id="text31" x="250" y="351" class="ts" dominant-baseline="central" text-anchor="middle">376</text><rect id="rect31" width="60" height="38" x="285" y="332" stroke-width=".8" class="cell-hi" rx="4"/><text id="text32" x="315" y="351" fill="#633806" class="th" dominant-baseline="central" text-anchor="middle">101</text><rect id="rect32" width="60" height="38" x="350" y="332" stroke-width=".5" class="cell" rx="4"/><text id="text33" x="380" y="351" class="ts" dominant-baseline="central" text-anchor="middle">104</text><rect id="rect33" width="60" height="38" x="415" y="332" stroke-width=".5" class="cell" rx="4"/><text id="text34" x="445" y="351" class="ts" dominant-baseline="central" text-anchor="middle">482</text><rect id="rect34" width="60" height="38" x="480" y="332" stroke-width=".8" class="cell-hi" rx="4"/><text id="text35" x="510" y="351" fill="#633806" class="th" dominant-baseline="central" text-anchor="middle">582</text><rect id="rect35" width="60" height="38" x="545" y="332" stroke-width=".5" class="cell" rx="4"/><text id="text36" x="575" y="351" class="ts" dominant-baseline="central" text-anchor="middle">101</text><rect id="rect36" width="60" height="38" x="610" y="332" stroke-width=".5" class="cell" rx="4"/><text id="text37" x="640" y="351" class="ts" dominant-baseline="central" text-anchor="middle">200</text><path id="path37" fill="none" stroke="#ba7517" stroke-width=".8" d="M90 372 L90 378 L150 378 L150 372" opacity=".7"/><path id="path38" fill="none" stroke="#b4b2a9" stroke-width=".6" d="M155 372 L155 378 L280 378 L280 372" opacity=".4"/><path id="path39" fill="none" stroke="#ba7517" stroke-width=".8" d="M285 372 L285 378 L345 378 L345 372" opacity=".7"/><path id="path40" fill="none" stroke="#b4b2a9" stroke-width=".6" d="M350 372 L350 378 L475 378 L475 372" opacity=".4"/><path id="path41" fill="none" stroke="#ba7517" stroke-width=".8" d="M480 372 L480 378 L540 378 L540 372" opacity=".7"/><path id="path42" fill="none" stroke="#b4b2a9" stroke-width=".6" d="M545 372 L545 378 L670 378 L670 372" opacity=".4"/><text id="text42" x="120" y="390" fill="#854f0b" class="ts" text-anchor="middle">step</text><text id="text43" x="315" y="390" fill="#854f0b" class="ts" text-anchor="middle">step</text><text id="text44" x="510" y="390" fill="#854f0b" class="ts" text-anchor="middle">step</text><text id="text45" x="86" y="434" class="ts" dominant-baseline="central" text-anchor="end">row 0</text><text id="text46" x="86" y="476" class="ts" dominant-baseline="central" opacity=".5" text-anchor="end">row 1</text><text id="text47" x="86" y="518" class="ts" dominant-baseline="central" opacity=".35" text-anchor="end">row 2</text><rect id="rect47" width="80" height="44" x="90" y="412" stroke-width=".5" class="cell" rx="4"/><text id="text48" x="130" y="434" class="th" dominant-baseline="central" text-anchor="middle">212</text><rect id="rect48" width="80" height="44" x="90" y="456" stroke-width=".5" class="cell" opacity=".55" rx="4"/><text id="text49" x="130" y="478" class="ts" dominant-baseline="central" text-anchor="middle">540</text><rect id="rect49" width="80" height="44" x="90" y="500" stroke-width=".5" class="cell" opacity=".3" rx="4"/><text id="text50" x="130" y="522" class="ts" dominant-baseline="central" text-anchor="middle">376</text><rect id="rect50" width="80" height="44" x="220" y="412" stroke-width=".5" class="cell" rx="4"/><text id="text51" x="260" y="434" class="th" dominant-baseline="central" text-anchor="middle">101</text><rect id="rect51" width="80" height="44" x="220" y="456" stroke-width=".5" class="cell" opacity=".55" rx="4"/><text id="text52" x="260" y="478" class="ts" dominant-baseline="central" text-anchor="middle">104</text><rect id="rect52" width="80" height="44" x="220" y="500" stroke-width=".5" class="cell" opacity=".3" rx="4"/><text id="text53" x="260" y="522" class="ts" dominant-baseline="central" text-anchor="middle">482</text><rect id="rect53" width="80" height="44" x="350" y="412" stroke-width=".5" class="cell" rx="4"/><text id="text54" x="390" y="434" class="th" dominant-baseline="central" text-anchor="middle">582</text><rect id="rect54" width="80" height="44" x="350" y="456" stroke-width=".5" class="cell" opacity=".55" rx="4"/><text id="text55" x="390" y="478" class="ts" dominant-baseline="central" text-anchor="middle">101</text><rect id="rect55" width="80" height="44" x="350" y="500" stroke-width=".5" class="cell" opacity=".3" rx="4"/><text id="text56" x="390" y="522" class="ts" dominant-baseline="central" text-anchor="middle">200</text><line id="line56" x1="120" x2="130" y1="371" y2="410" stroke="#ba7517" stroke-dasharray="3 2" stroke-width="1" marker-end="url(#arrow)" opacity=".7"/><line id="line57" x1="315" x2="260" y1="371" y2="410" stroke="#ba7517" stroke-dasharray="3 2" stroke-width="1" marker-end="url(#arrow)" opacity=".7"/><line id="line58" x1="510" x2="390" y1="371" y2="410" stroke="#ba7517" stroke-dasharray="3 2" stroke-width="1" marker-end="url(#arrow)" opacity=".7"/><rect id="rect58" width="344" height="48" x="88" y="410" fill="none" stroke="#1D9E75" stroke-width="1.5" opacity=".7" rx="5"/><rect id="rect59" width="344" height="94" x="88" y="454" fill="#f1efe8" opacity=".35" rx="5"/><line id="line59" x1="429.143" x2="605.348" y1="434" y2="434" stroke="#1d9e75" stroke-dasharray="3 2" stroke-width=".617" marker-end="url(#arrow)"/><text id="text59" x="614" y="436" fill="#0f6e56" class="ts" dominant-baseline="central">top row - kept</text><line id="line60" x1="429.143" x2="605.348" y1="496" y2="496" stroke="#888780" stroke-dasharray="3 2" stroke-width=".8" marker-end="url(#arrow)"/><text id="text60" x="614" y="498" class="ts" dominant-baseline="central">lower rows - discarded</text><text id="text61" x="86" y="582" class="ts" dominant-baseline="central" text-anchor="end">result</text><rect id="rect61" width="80" height="44" x="90" y="560" stroke-width=".5" class="cell-teal" rx="4"/><text id="text62" x="130" y="582" fill="#085041" class="th" dominant-baseline="central" text-anchor="middle">212</text><rect id="rect62" width="80" height="44" x="220" y="560" stroke-width=".5" class="cell-teal" rx="4"/><text id="text63" x="260" y="582" fill="#085041" class="th" dominant-baseline="central" text-anchor="middle">101</text><rect id="rect63" width="80" height="44" x="350" y="560" stroke-width=".5" class="cell-teal" rx="4"/><text id="text64" x="390" y="582" fill="#085041" class="th" dominant-baseline="central" text-anchor="middle">582</text><line id="line64" x1="130" x2="130" y1="458" y2="558" stroke="#1D9E75" stroke-dasharray="3 2" stroke-width="1" marker-end="url(#arrow)" opacity=".6"/><line id="line65" x1="260" x2="260" y1="458" y2="558" stroke="#1D9E75" stroke-dasharray="3 2" stroke-width="1" marker-end="url(#arrow)" opacity=".6"/><line id="line66" x1="390" x2="390" y1="458" y2="558" stroke="#1D9E75" stroke-dasharray="3 2" stroke-width="1" marker-end="url(#arrow)" opacity=".6"/><line id="line67" x1="427.953" x2="605.348" y1="582" y2="582" stroke="#1d9e75" stroke-dasharray="3 2" stroke-width=".617" marker-end="url(#arrow)"/><text id="text67" x="614" y="584" fill="#0f6e56" class="ts" dominant-baseline="central">data[<tspan style="fill:#1d9e75;fill-opacity:1" id="tspan3">::3</tspan>] → [212, 101, 582]</text><metadata id="metadata67"/></svg>